<svg width="20" height="20" viewBox="0 0 20 20" fill="none" xmlns="http://www.w3.org/2000/svg">
<rect width="20" height="20" rx="10" fill="white"/>
<rect x="2" y="2" width="16" height="16" rx="8" fill="#FFF3E0"/>
<path fill-rule="evenodd" clip-rule="evenodd" d="M11.0001 8.06134C11.7944 8.85958 12.5246 9.73091 13.1818 10.6664C13.4993 11.1183 14.1231 11.2272 14.575 10.9098C15.0269 10.5923 15.1358 9.96854 14.8183 9.51664C13.7326 7.97131 12.463 6.58158 11.0409 5.38251C10.7446 5.13267 10.3764 5 10.0001 5C9.6238 5 9.2556 5.13267 8.95927 5.38251C7.53713 6.58158 6.26754 7.97131 5.18184 9.51664C4.86435 9.96854 4.97331 10.5923 5.42521 10.9098C5.87711 11.2272 6.50083 11.1183 6.81833 10.6664C7.47556 9.73091 8.20575 8.85959 9.00008 8.06134V14C9.00008 14.5523 9.4478 15 10.0001 15C10.5524 15 11.0001 14.5523 11.0001 14V8.06134Z" fill="#FF9800"/>
</svg>
