<svg width="20" height="20" viewBox="0 0 20 20" fill="none" xmlns="http://www.w3.org/2000/svg">
<rect width="20" height="20" rx="10" fill="white"/>
<rect x="2" y="2" width="16" height="16" rx="8" fill="#E3FDF0"/>
<path d="M10.5812 5.13272C10.544 4.86631 10.2949 4.66663 9.99984 4.66663C9.70472 4.66663 9.45564 4.86631 9.41843 5.13272C9.22967 6.48427 8.8289 7.45842 8.17695 8.14196C7.53377 8.81631 6.58663 9.26961 5.16173 9.47307C4.87661 9.51378 4.6665 9.73733 4.6665 9.99996C4.6665 10.2626 4.87661 10.4861 5.16173 10.5268C6.58663 10.7303 7.53377 11.1836 8.17695 11.858C8.8289 12.5415 9.22967 13.5156 9.41843 14.8672C9.45564 15.1336 9.70472 15.3333 9.99984 15.3333C10.2949 15.3333 10.544 15.1336 10.5812 14.8672C10.77 13.5156 11.1708 12.5415 11.8227 11.858C12.4659 11.1836 13.413 10.7303 14.8379 10.5268C15.1231 10.4861 15.3332 10.2626 15.3332 9.99996C15.3332 9.73733 15.1231 9.51378 14.8379 9.47307C13.3356 9.25856 12.3874 8.7766 11.7623 8.09414C11.1256 7.39913 10.7624 6.42997 10.5812 5.13272Z" fill="#089962"/>
</svg>
